<svg xmlns="http://www.w3.org/2000/svg" xmlns:xlink="http://www.w3.org/1999/xlink" width="180.87" height="180.87" viewBox="0 0 180.87 180.87">
  <defs>
    <filter id="패스_65" x="0" y="0" width="180.87" height="180.87" filterUnits="userSpaceOnUse">
      <feOffset dx="1" dy="1" input="SourceAlpha"/>
      <feGaussianBlur stdDeviation="2" result="blur"/>
      <feFlood flood-color="#595959" flood-opacity="0.4"/>
      <feComposite operator="in" in2="blur"/>
      <feComposite in="SourceGraphic"/>
    </filter>
  </defs>
  <g id="그룹_58" data-name="그룹 58" transform="translate(-324.565 -54.065)">
    <g transform="matrix(1, 0, 0, 1, 324.56, 54.06)" filter="url(#패스_65)">
      <path id="패스_65-2" data-name="패스 65" d="M414,226.8a83.3,83.3,0,1,1,83.3-83.3A83.394,83.394,0,0,1,414,226.8Z" transform="translate(-324.56 -54.06)" fill="#ffbf2e" stroke="#000" stroke-miterlimit="10" stroke-width="2.27"/>
    </g>
    <circle id="타원_32" data-name="타원 32" cx="69.741" cy="69.741" r="69.741" transform="translate(344.259 73.759)" fill="#ff982f"/>
    <g id="그룹_57" data-name="그룹 57">
      <path id="패스_66" data-name="패스 66" d="M366.234,153.06a9.763,9.763,0,0,0,2.3-.293,5.7,5.7,0,0,0,1.6-.67,2.794,2.794,0,0,0,.947-.946,2.228,2.228,0,0,0,.31-1.126,1.915,1.915,0,0,0-.343-1.093,3.464,3.464,0,0,0-.946-.914,7.56,7.56,0,0,0-1.42-.734,16.854,16.854,0,0,0-1.763-.588q-1.632-.423-3.508-1.044a16.034,16.034,0,0,1-3.493-1.632,9.349,9.349,0,0,1-2.692-2.53,6.35,6.35,0,0,1-1.078-3.77,8.425,8.425,0,0,1,.817-3.818,7.691,7.691,0,0,1,2.219-2.709,9.488,9.488,0,0,1,3.3-1.6,15.175,15.175,0,0,1,4.048-.523,14.962,14.962,0,0,1,3.1.311,9.677,9.677,0,0,1,2.726,1.011,8.843,8.843,0,0,1,2.268,1.828,9.848,9.848,0,0,1,1.7,2.725,3.152,3.152,0,0,1,.1,1.714,2.277,2.277,0,0,1-.7,1.142,2.912,2.912,0,0,1-1.207.621,3.549,3.549,0,0,1-1.387.081,3.182,3.182,0,0,1-1.257-.457,1.911,1.911,0,0,1-.8-.979,3.92,3.92,0,0,0-1.86-2.154,5.978,5.978,0,0,0-2.709-.62,6.323,6.323,0,0,0-1.828.245,4.648,4.648,0,0,0-1.4.669,2.931,2.931,0,0,0-.9,1.011,2.426,2.426,0,0,0-.277,1.273,2.026,2.026,0,0,0,.587,1.338,5.6,5.6,0,0,0,1.387,1.045,11.349,11.349,0,0,0,1.861.8q1.027.342,2.007.6,1.665.457,3.362,1.061a12.752,12.752,0,0,1,3.068,1.567,8.067,8.067,0,0,1,2.236,2.35,6.2,6.2,0,0,1,.864,3.345,8.3,8.3,0,0,1-.815,3.753,7.536,7.536,0,0,1-2.3,2.726,10.8,10.8,0,0,1-3.558,1.664,17.235,17.235,0,0,1-4.586.571,16.913,16.913,0,0,1-3.28-.375,9.224,9.224,0,0,1-5.336-3.3,10.776,10.776,0,0,1-1.763-3.28,2.908,2.908,0,0,1-.065-1.713,2.335,2.335,0,0,1,.784-1.175,3.284,3.284,0,0,1,1.289-.62,3.79,3.79,0,0,1,1.436-.082,3.214,3.214,0,0,1,1.273.457,1.62,1.62,0,0,1,.734,1.012,5.819,5.819,0,0,0,.8,1.7,5.039,5.039,0,0,0,1.158,1.192,4.644,4.644,0,0,0,1.436.7A5.548,5.548,0,0,0,366.234,153.06Z" fill="#fff"/>
      <path id="패스_67" data-name="패스 67" d="M385.948,134.718h-5.973a1.736,1.736,0,0,1-1.567-.816,3.349,3.349,0,0,1,0-3.591,1.769,1.769,0,0,1,1.6-.815h17.821a1.768,1.768,0,0,1,1.6.815,3.343,3.343,0,0,1,0,3.591,1.736,1.736,0,0,1-1.566.816h-6.006v21.15a1.528,1.528,0,0,1-.44,1.126,2.692,2.692,0,0,1-1.094.652,4.551,4.551,0,0,1-1.42.212,4.28,4.28,0,0,1-1.42-.228,2.771,2.771,0,0,1-1.093-.685,1.585,1.585,0,0,1-.44-1.143Z" fill="#fff"/>
      <path id="패스_68" data-name="패스 68" d="M408.827,131.748a3.187,3.187,0,0,1,.832-1.289,4.3,4.3,0,0,1,1-.669,3.316,3.316,0,0,1,1.175-.294h1.436a3.321,3.321,0,0,1,1.175.294,4.01,4.01,0,0,1,.979.669,3.588,3.588,0,0,1,.849,1.289l9.138,23.337a1.385,1.385,0,0,1-.032,1.141,2.371,2.371,0,0,1-.816.9,4.232,4.232,0,0,1-1.289.571,5.12,5.12,0,0,1-1.437.18,3.2,3.2,0,0,1-1.272-.278,1.5,1.5,0,0,1-.8-.816l-2.22-5.907h-9.954l-2.154,5.679a1.691,1.691,0,0,1-.8.93,3.31,3.31,0,0,1-1.3.375,4.581,4.581,0,0,1-1.486-.114,4.152,4.152,0,0,1-1.305-.538,2.237,2.237,0,0,1-.816-.881,1.379,1.379,0,0,1,0-1.176Zm.751,13.871h5.972l-3-7.9Z" fill="#fff"/>
      <path id="패스_69" data-name="패스 69" d="M428.8,132.139a3.194,3.194,0,0,1,.326-1.305,3.038,3.038,0,0,1,.783-.914,2.329,2.329,0,0,1,1.5-.424h7.9a19.423,19.423,0,0,1,4.064.408,9.008,9.008,0,0,1,3.329,1.4,7.006,7.006,0,0,1,2.252,2.661,9.216,9.216,0,0,1,.832,4.144,10.19,10.19,0,0,1-.408,3.035,7.274,7.274,0,0,1-1.142,2.269,6.5,6.5,0,0,1-1.763,1.6,10.063,10.063,0,0,1-2.268,1.029l5.483,9.562a1.932,1.932,0,0,1,.375,1.306,1.082,1.082,0,0,1-.473.685,2.113,2.113,0,0,1-1.077.294H446.3a2.886,2.886,0,0,1-1.306-.277,3.485,3.485,0,0,1-.914-.637,4.381,4.381,0,0,1-.75-.914l-5.222-9.4h-3.395V155.9a1.528,1.528,0,0,1-.44,1.126,2.7,2.7,0,0,1-1.094.653,4.585,4.585,0,0,1-1.42.212,4.284,4.284,0,0,1-1.42-.228,2.762,2.762,0,0,1-1.093-.686,1.577,1.577,0,0,1-.44-1.142Zm15.078,5.973a3,3,0,0,0-.424-1.664,3.354,3.354,0,0,0-1.06-1.045,4.149,4.149,0,0,0-1.388-.538,7.24,7.24,0,0,0-1.4-.147h-4.9v6.691h4.9a8.216,8.216,0,0,0,1.4-.131,4.312,4.312,0,0,0,1.388-.489,3.081,3.081,0,0,0,1.06-1A2.98,2.98,0,0,0,443.88,138.112Z" fill="#fff"/>
      <path id="패스_70" data-name="패스 70" d="M458.895,134.718h-5.974a1.736,1.736,0,0,1-1.566-.816,3.349,3.349,0,0,1,0-3.591,1.768,1.768,0,0,1,1.6-.815h17.821a1.768,1.768,0,0,1,1.6.815,3.349,3.349,0,0,1,0,3.591,1.737,1.737,0,0,1-1.566.816H464.8v21.15a1.524,1.524,0,0,1-.441,1.126,2.681,2.681,0,0,1-1.093.652,4.555,4.555,0,0,1-1.42.212,4.28,4.28,0,0,1-1.42-.228,2.771,2.771,0,0,1-1.093-.685,1.581,1.581,0,0,1-.44-1.143Z" fill="#fff"/>
    </g>
  </g>
</svg>
